<svg width="74" height="55" viewBox="0 0 74 55" fill="none" xmlns="http://www.w3.org/2000/svg">
<path fill-rule="evenodd" clip-rule="evenodd" d="M52.833 17.5102C49.5553 15.2538 45.6546 13.5021 41.3977 12.4846C40.128 12.1793 38.8285 11.9379 37.501 11.7723C36.3647 11.6307 35.2343 11.5429 34.1178 11.5129C33.8869 11.507 33.6561 11.505 33.4272 11.503C32.5337 11.497 31.65 11.5249 30.7764 11.5908C30.8082 13.546 31.3893 15.5251 32.5098 17.4843C33.7616 19.6729 35.6243 21.7438 38.0483 23.6391C40.4922 25.5524 43.3779 27.1864 46.6258 28.4972C49.9991 29.8579 53.6132 30.8055 57.3666 31.3143C57.6173 31.3482 57.8701 31.3801 58.1208 31.4101C59.6811 31.5956 61.2354 31.6993 62.7638 31.7233C62.6862 31.2086 62.5827 30.6958 62.4533 30.1891C61.2314 25.3689 57.7288 20.8799 52.833 17.5102Z" fill="#CBBBA0"/>
<path fill-rule="evenodd" clip-rule="evenodd" d="M73.4418 8.51191C71.1432 9.50148 67.0296 11.309 63.1747 13.0069C59.4054 14.6648 55.8828 16.215 54.5435 16.7856C55.3276 17.3622 56.0779 17.9667 56.7923 18.6031C59.2661 20.8057 61.1945 23.2557 62.5259 25.8852C63.1707 27.1581 63.6603 28.4489 63.9966 29.7457L64.1439 29.7018L73.0676 26.9925C73.2746 26.9307 73.4179 26.7411 73.4219 26.5237L73.816 8.76529C73.8199 8.56977 73.6229 8.43411 73.4418 8.51191Z" fill="#CBBBA0"/>
<path fill-rule="evenodd" clip-rule="evenodd" d="M14.0011 7.88445C14.1205 6.77717 14.9325 5.80955 16.0967 5.53023C17.4281 5.21102 18.7715 5.89933 19.2949 7.09639C19.3546 7.23206 19.4043 7.37371 19.4402 7.52334C19.7466 8.7603 19.1337 10.0092 18.0292 10.5738C17.8361 10.6716 17.6291 10.7514 17.4082 10.8033C16.441 11.0347 15.4659 10.7335 14.8051 10.093C14.4529 9.75186 14.1902 9.31494 14.0648 8.81018C13.9872 8.49894 13.9673 8.18571 14.0011 7.88445ZM31.1561 18.231C29.9322 16.0883 29.2854 13.9116 29.2257 11.747C29.1301 11.7569 29.0366 11.7689 28.9411 11.7829C26.2922 12.142 23.8165 12.8363 21.5796 13.8458C19.3805 14.8394 17.4759 16.1122 15.9136 17.6265C14.3395 19.1528 13.1593 20.8885 12.4011 22.7838C12.2399 23.1868 11.7742 23.3864 11.3622 23.2287C10.9503 23.0711 10.7473 22.6143 10.9085 22.2093C11.7483 20.1084 13.0518 18.1891 14.7852 16.5073C16.4808 14.8633 18.5406 13.4887 20.9089 12.4173C23.2891 11.344 25.9161 10.6038 28.7222 10.2247C28.8774 10.2028 29.0346 10.1828 29.1918 10.1648L29.0784 10.1329C26.3818 5.65992 21.8801 2.90469 17.0858 3.37353C15.5713 3.52317 14.1504 3.98403 12.8608 4.69429C12.4767 4.90577 12.1045 5.1372 11.7463 5.39058C11.6966 5.42649 11.6269 5.4225 11.5831 5.37861L6.35901 0.0696535C6.17592 -0.109905 5.87342 0.0876099 5.97093 0.323032L7.71429 6.51183C7.86156 6.92681 7.83569 7.35575 7.59886 7.68893C7.32224 8.07598 6.88839 8.16576 6.20776 8.18571H6.20179H6.20378L0.267207 8.50492C0.0104795 8.473 -0.104948 8.81018 0.119937 8.93786L6.44061 12.2178C6.49832 12.2497 6.60579 12.2597 6.54807 12.8263C6.21373 16.3776 6.5839 19.9269 7.64862 23.3704C8.32128 25.5431 9.2467 27.594 10.4109 29.5093C11.1592 30.7403 12.001 31.9134 12.9444 33.0247C15.2728 35.7679 18.0889 38.0144 21.3129 39.7063C23.2314 40.7118 25.2394 41.4919 27.3131 42.0365L27.3271 42.0445C29.2376 42.4934 31.2238 42.7687 33.2298 42.8625C33.6756 42.8844 34.1194 42.8944 34.5632 42.8984L34.6806 42.8884L35.6518 54.0171H37.0827L38.0658 42.7608L38.0678 42.7448L39.4948 42.5533C40.45 42.3837 41.3993 42.1562 42.3406 41.8849C42.476 41.847 42.6113 41.8171 42.7466 41.7772C50.2116 39.5107 53.9829 35.0397 56.3432 32.7075C48.9618 31.5782 42.1476 28.7971 37.0787 24.8308C34.4995 22.8118 32.5054 20.5912 31.1561 18.231Z" fill="#CBBBA0"/>
<path fill-rule="evenodd" clip-rule="evenodd" d="M17.1387 9.51327C17.9925 9.30977 18.5179 8.45986 18.3109 7.62191C18.1019 6.78397 17.2362 6.26724 16.3825 6.47274C15.5287 6.67624 15.0013 7.52615 15.2103 8.36409C15.4192 9.20203 16.283 9.71876 17.1387 9.51327Z" fill="#CBBBA0"/>
</svg>
