<svg width="1025" height="1024" viewBox="0 0 1025 1024" fill="none" xmlns="http://www.w3.org/2000/svg">
<path d="M89.2683 139.512C87.9251 136.224 92.0924 133.465 94.615 135.973L166.594 210.127C167.197 210.74 168.156 210.796 168.842 210.295C173.777 206.756 178.905 203.523 184.197 200.569C201.965 190.649 221.544 184.211 242.411 182.121C308.466 175.572 370.491 214.057 407.645 276.535L409.209 276.981C407.043 277.231 404.876 277.51 402.737 277.816C364.075 283.111 327.88 293.45 295.086 308.442C262.456 323.407 234.075 342.608 210.713 365.57C186.83 389.062 168.869 415.871 157.298 445.215C155.077 450.872 157.874 457.253 163.55 459.454C169.226 461.656 175.642 458.869 177.863 453.24C188.31 426.767 204.571 402.522 226.261 381.204C247.785 360.053 274.026 342.273 304.326 328.396C335.146 314.295 369.257 304.597 405.754 299.581C407.07 299.386 408.358 299.218 409.675 299.079C410.497 329.315 419.409 359.718 436.272 389.648C454.863 422.614 482.339 453.631 517.876 481.832C587.715 537.232 681.603 576.079 783.304 591.852C750.784 624.428 698.822 686.878 595.969 718.535C594.104 719.093 592.239 719.511 590.375 720.04C577.405 723.83 564.326 727.006 551.164 729.375L531.504 732.051L531.476 732.273L517.93 889.5H498.216L484.834 734.057L483.217 734.196C477.102 734.141 470.987 734.001 464.844 733.694C437.205 732.385 409.839 728.54 383.515 722.27L383.324 722.158C354.752 714.551 327.084 703.654 300.651 689.609C256.23 665.978 217.431 634.599 185.349 596.282C172.352 580.76 160.753 564.374 150.443 547.18C134.402 520.427 121.652 491.78 112.384 461.433C97.7138 413.334 92.6139 363.759 97.2205 314.155C98.0157 306.241 96.5342 306.102 95.739 305.656L8.65212 259.842C5.55422 258.058 7.14444 253.349 10.6814 253.795L92.4763 249.336H92.531C101.909 249.057 107.887 247.804 111.698 242.398C114.961 237.744 115.318 231.752 113.289 225.956L89.2683 139.512ZM467.566 295.671C470.72 295.699 473.901 295.727 477.082 295.811C492.464 296.229 508.039 297.455 523.696 299.434C541.985 301.747 559.891 305.118 577.385 309.382C636.037 323.594 689.781 348.061 734.942 379.579C802.396 426.647 850.656 489.348 867.492 556.675C869.274 563.753 870.7 570.915 871.769 578.105C850.711 577.77 829.295 576.321 807.798 573.73C804.343 573.312 800.861 572.865 797.406 572.392C745.691 565.286 695.895 552.048 649.418 533.043C604.668 514.734 564.908 491.911 531.236 465.187C497.838 438.713 472.173 409.787 454.926 379.217C439.488 351.851 431.481 324.207 431.043 296.898C443.08 295.978 455.255 295.587 467.566 295.671ZM1018.89 253.893C1021.39 252.806 1024.1 254.701 1024.05 257.432L1018.62 505.478C1018.56 508.515 1016.59 511.162 1013.74 512.026L890.783 549.869L888.754 550.482C884.12 532.369 877.374 514.339 868.49 496.56C850.146 459.831 823.575 425.61 789.492 394.845C779.648 385.955 769.311 377.512 758.508 369.458C776.962 361.488 825.496 339.835 877.429 316.678C930.543 292.963 987.22 267.715 1018.89 253.893ZM272.847 234.121C265.636 217.401 247.127 207.786 228.783 212.245C212.742 216.147 201.554 229.663 199.909 245.129C199.443 249.337 199.718 253.712 200.787 258.059C202.514 265.109 206.134 271.212 210.987 275.978C220.091 284.923 233.527 289.131 246.853 285.898C249.897 285.174 252.748 284.059 255.408 282.693C270.626 274.807 279.072 257.362 274.849 240.085C274.356 237.995 273.67 236.016 272.847 234.121ZM232.716 225.41C244.479 222.54 256.407 229.758 259.286 241.462C262.137 253.166 254.899 265.037 243.136 267.88C231.345 270.75 219.444 263.532 216.565 251.828C213.686 240.124 220.952 228.253 232.716 225.41Z" fill="#CBBBA0"/>
</svg>
